<?xml version="1.0" encoding="utf-8"?>
<!-- Generator: Adobe Illustrator 22.0.1, SVG Export Plug-In . SVG Version: 6.00 Build 0)  -->
<svg version="1.1" id="Layer_1" xmlns="http://www.w3.org/2000/svg" xmlns:xlink="http://www.w3.org/1999/xlink" x="0px" y="0px"
	 viewBox="0 0 2000 286" style="enable-background:new 0 0 2000 286;" xml:space="preserve">
<style type="text/css">
	.st0{fill:transparent;}
	.st1{fill:#fefefe;}
	.st2{fill:#fefefe;}
</style>
<g>
	<g>
		<path class="st0" d="M167,1c609.8,0,1219.7,0,1829.5-0.1c3.7,0,4.6,0.8,4.6,4.6c-0.1,92.5-0.1,185,0,277.5c0,3.4-0.7,4.1-4.1,4.1
			c-664-0.1-1328-0.1-1992,0c-3.4,0-4.1-0.7-4.1-4.1C1,189,1,95,1,1c40.3,0,80.7,0,121,0c-0.5,1.3-1.6,0.9-2.5,1
			c-11,0.9-21.8,2.4-32.5,5.1c-23.6,5.8-45.2,15.2-61.4,34C14.6,53.5,8.3,67.7,8.5,85c0.5,39.3,0.2,78.7,0.1,118
			c0,5.4,1,10.5,3.1,15.5c10.3,24.8,29.5,40.2,53.5,50.3c24.6,10.4,50.7,13.4,77.2,13.5c28.7,0.1,56.8-3.2,83.6-14.1
			c18.3-7.5,34.5-17.9,46.7-33.9c1.7-2.2,3.2-4.5,3.2-7.6c-0.1-29.3-0.1-58.7,0-88c0-3.1-0.9-3.9-4-3.9c-41.5,0.1-83,0.1-124.5,0
			c-2.9,0-3.7,0.8-3.6,3.7c0.2,9.2,0.3,18.3,0,27.5c-0.1,3.8,1.1,4.7,4.7,4.6c17.7-0.2,35.3,0,53-0.2c3.4,0,4.5,0.9,4.5,4.4
			c-0.2,15.5-0.1,31-0.1,46.5c0,11.1-1.9,14-12.3,18.3c-2.3,1-4.7,1.8-7.1,2.4c-16.6,4.4-33.5,5-50.6,4.4c-12.7-0.5-25.2-2.3-36.8-8
			c-13.7-6.8-21-17.4-20.9-33.3c0.3-41.5,0.1-83,0.1-124.5c0-20.6,8.3-32.6,27.7-39.6c15.1-5.5,30.9-6.4,46.8-5.4
			c11.9,0.7,23.5,2.6,34.1,8.5c12.5,7,19.3,17.4,18.9,32.1c-0.2,7.5,0.1,15-0.1,22.5c-0.1,2.6,0.6,3.4,3.3,3.4c21-0.1,42-0.1,63,0
			c2.8,0,3.8-0.7,3.7-3.6c-0.2-6.5-0.2-13,0-19.5c0.7-22-8.9-38.9-25.9-51.9c-18.4-14-40.1-19.6-62.5-23.2
			C180.6,2.8,173.6,3.2,167,1z M1782.6,139c0,43.3,0.1,86.6-0.1,130c0,4.2,1.1,5.2,5.2,5.2c15.3-0.3,30.7-0.2,46,0
			c3.9,0.1,5.4-0.6,5.3-5c-0.2-42.8,0.2-85.6-0.3-128.5c-0.1-12.1,5.6-18.9,15.7-23.5c6.8-3,14-4.2,21.3-4.7
			c14.2-1,28.4-0.5,41.6,5.7c9,4.2,13.8,11,13.7,21.7c-0.3,43.2-0.1,86.3-0.2,129.5c0,4,1.1,4.9,5,4.9c15.5-0.2,31-0.2,46.5,0
			c3.9,0.1,4.9-0.9,4.9-4.9c-0.1-44.5-0.4-89,0.1-133.5c0.1-13.4-5.4-23.4-15-31.7c-8.4-7.3-18.3-12.1-29-15.1
			c-32.3-9.3-65-9.4-98-4.4c-6.4,1-6.4,1.2-6.4-5.3c0-24-0.1-48,0.1-72c0-2.9-0.4-3.9-3.7-3.9c-15.8,0.2-31.7,0.2-47.5-0.2
			c-4.3-0.1-5.2,1.2-5.2,5.3C1782.6,52,1782.6,95.5,1782.6,139z M1461.5,196.6c23.2,0,46.3-0.1,69.5,0.1c4.3,0,5.2-1.2,5.1-5.3
			c-0.2-17.2-0.3-34.3,0-51.5c0.2-11.9-4.2-21.7-12.4-30c-9.8-9.9-22-15.5-35.2-18.9c-31.1-8.1-62.6-8.1-94.2-3.4
			c-16.4,2.4-32.2,7.2-45.5,17.7c-11.5,9-17.7,20.6-17.6,35.7c0.3,28.8,0.2,57.6,0,86.5c-0.1,11.5,4.1,21.1,11.9,29.2
			c8.9,9.2,20.1,14.6,32.2,18.3c26.2,7.9,53.2,8.2,80.2,6.5c16-1.1,31.7-3.9,46.5-10.3c24.8-10.7,33.9-24.7,34-51.7
			c0-4.2-1.5-4.8-5.1-4.7c-14.8,0.2-29.7,0.1-44.5,0.1c-6.7,0-6.7,0-6.7,6.9c0,15.4-5.3,22.7-20.1,27.3c-9.5,3-19.3,3.4-29.1,3.3
			c-10.6-0.2-21-1.3-30.5-6.4c-8.1-4.3-13-10.7-12.7-20.4c0.2-8,0.4-16,0.2-24c-0.1-3.9,0.9-5.1,4.9-5
			C1415.5,196.7,1438.5,196.6,1461.5,196.6z M426.4,196.6c23,0,46-0.1,69,0.1c4.1,0,5.4-0.9,5.3-5.2c-0.3-16.8-0.3-33.7,0-50.5
			c0.3-14.7-5.8-26-16.9-35.1c-9.1-7.4-19.6-12-30.7-14.9c-31.1-8.1-62.6-8-94.2-3.4C344,89.8,329.6,94,317,102.6
			c-13.8,9.4-21.5,21.9-21.2,39.4c0.6,28.5,0.3,57,0.1,85.5c-0.1,12.9,5,23.2,14.3,31.7c9.4,8.6,20.9,13.5,33,16.9
			c25.1,6.9,50.7,7.2,76.4,5.5c16.8-1.1,33.4-3.9,48.9-11.2c20.5-9.7,34.4-23,32.3-51.8c-0.2-3.3-1.3-3.8-4.2-3.7
			c-16.2,0.1-32.3,0.1-48.5,0c-3,0-4.4,0.7-3.9,3.9c0.2,1.3,0.1,2.7,0.1,4c0.1,14.1-4.3,20.5-17.6,25.5c-10.7,4-21.8,4.4-33,4.1
			c-9.9-0.2-19.6-1.5-28.5-6.1c-8.7-4.5-13.7-11.2-13.2-21.5c0.4-7,0-14,0.2-21c0.1-7.6-1.4-7,6.8-7
			C381.4,196.6,403.9,196.6,426.4,196.6z M873.8,196.6c23.2,0,46.3-0.1,69.5,0.1c3.6,0,4.8-0.8,4.8-4.7c-0.2-17.3-0.2-34.7-0.1-52
			c0.1-12-4.3-22-12.7-30.4c-9.7-9.7-21.8-15.2-34.8-18.6c-31.1-8.1-62.6-8.1-94.2-3.4c-16.1,2.4-31.5,7.1-44.7,17.1
			c-12.2,9.2-18.6,21.1-18.5,36.8c0.4,28.6,0.2,57.3,0.1,86c-0.1,11.5,4,21.1,11.9,29.2c8.9,9.3,20.1,14.7,32.2,18.3
			c26.2,8,53.2,8.3,80.2,6.5c16.2-1.1,32-3.9,47-10.5c24.8-10.8,34.2-25.6,33.6-52.4c-0.1-3.2-1-3.8-4-3.8
			c-16.2,0.1-32.3,0.1-48.5,0c-3,0-4.4,0.7-3.9,3.9c0.2,1.3,0,2.7,0,4c0.2,13.7-4.3,20.5-17.2,25.3c-14.3,5.4-29.1,5-43.9,3.5
			c-6.5-0.7-12.8-2.4-18.5-5.5c-8.4-4.6-13.2-11.3-12.8-21.3c0.3-7.8,0.4-15.7,0.2-23.5c-0.1-3.8,1.3-4.6,4.9-4.6
			C827.5,196.7,850.6,196.6,873.8,196.6z M966.9,184.1c0,28.3,0.1,56.7-0.1,85c0,4.3,1.2,5.2,5.2,5.1c15.3-0.3,30.7-0.3,46,0
			c4.1,0.1,5.2-0.9,5.2-5.1c-0.2-42.7-0.1-85.3-0.1-128c0-12.6,4.5-19.2,16.2-24.1c6.7-2.8,13.7-4,20.9-4.5
			c14.7-0.9,29.4-0.6,42.9,6.5c7.9,4.2,12.2,10.4,12.2,20c-0.3,43.5-0.1,87-0.2,130.5c0,3.7,0.8,4.8,4.6,4.7c15.7-0.2,31.3-0.2,47,0
			c4.1,0.1,4.9-1.3,4.8-5c-0.1-45.7-0.1-91.3,0-137c0-5.7-1.5-10.8-4.4-15.6c-8.3-14-21.5-21.7-36.3-26.4
			c-35.1-11.1-70.9-11.2-106.7-4.4c-17.5,3.3-34.2,11.1-52.6,8.6c-3.8-0.5-4.7,1-4.7,4.7C967,127.4,966.9,155.7,966.9,184.1z
			 M519.6,184.1c0,28.2,0.1,56.3-0.1,84.5c0,4.1,0.6,5.7,5.3,5.6c15.3-0.4,30.7-0.3,46,0c4.1,0.1,5.2-0.9,5.2-5.1
			c-0.2-42.8-0.1-85.6-0.1-128.5c0-12.1,4.4-18.6,15.6-23.4c6.8-2.9,14-4.2,21.4-4.6c14.4-0.9,28.7-0.5,42,6
			c8.6,4.2,13.2,10.8,13.2,21c-0.3,43.2-0.1,86.3-0.2,129.5c0,4,0.6,5.4,5,5.3c15.5-0.3,31-0.3,46.5,0c4.2,0.1,4.8-1.3,4.8-5
			c-0.1-44.8-0.3-89.6,0.1-134.5c0.1-10.4-3.7-18.8-10.3-26.2c-5.8-6.4-12.9-11-20.7-14.6c-15.2-7-31.3-10.2-47.8-11.5
			c-26.5-2-53.2-2.5-78.7,5.8c-13.9,4.5-27.6,6.7-42,6c-4.2-0.2-5.3,1.2-5.2,5.3C519.7,127.8,519.6,155.9,519.6,184.1z
			 M1611.9,184.3C1611.9,184.3,1612,184.3,1611.9,184.3c0-6.3,0-12.7,0-19c0-6.5,0-13,0-19.5c0-13.7,4.8-20.6,17.7-25.7
			c7.4-2.9,15.1-4.1,22.9-4.5c12.9-0.7,25.7-0.3,37.7,5.2c9,4.2,14.5,10.8,13.8,21.5c-0.4,5.6,0,11.3-0.1,17
			c-0.1,2.4,0.8,3.1,3.1,3.1c16.5,0,33,0.1,49.5,0.3c2.8,0,3.8-0.8,3.7-3.7c-0.2-6.3-0.3-12.7,0-19c0.5-13.1-5-23.5-14.5-32.1
			c-9.5-8.6-20.8-13.7-33-16.8c-31.1-8.1-62.6-8-94.2-3.4c-15.1,2.2-29.6,6.6-42.3,15.4c-13.4,9.3-20.9,21.6-20.6,38.7
			c0.5,28.5,0.4,57,0.1,85.5c-0.1,13.6,5.3,24.1,15.2,32.8c9.3,8.2,20.5,13.1,32.3,16.1c32.8,8.3,65.9,8.2,99.1,2.3
			c15.9-2.8,30.9-8.1,43.3-19.1c9.5-8.5,15.1-18.9,14.6-32c-0.2-5.5-0.2-11,0-16.5c0.2-3.4-1.1-4.1-4.3-4.1
			c-11.8,0.2-23.7,0-35.5,0.1c-5.3,0-12.5-1.8-15.4,0.9c-3.4,3.1-1,10.4-1,15.8c-0.1,13-4.3,19.5-16.4,24.4
			c-10.2,4.1-21,4.7-31.9,4.6c-10.7-0.1-21.3-1.2-31-6.4c-8.4-4.5-13.2-11.1-12.9-21.2C1612.2,211.3,1611.9,197.8,1611.9,184.3z
			 M1202.1,180.4c0,17.3-0.1,34.6,0,52c0.1,15.1,6.6,26.9,19.2,35.2c4.6,3.1,9.5,5.5,14.7,7.2c25.9,8.6,52.4,8.1,79.1,5.2
			c2.6-0.3,2.4-2,2.4-3.5c0.1-6-0.3-12,0.1-18c0.4-5.3-1.5-6.7-6.5-5.6c-2.2,0.5-4.6,0.5-7,0.6c-11.4,0.4-22.7-0.2-33-5.8
			c-7.3-4-12.9-9.6-12.9-18.7c0-34.3,0-68.6-0.1-102.9c0-3.6,1.2-4.4,4.6-4.4c17.5,0.1,35-0.1,52.5,0.2c4.1,0.1,5-1.3,4.8-5.1
			c-0.3-7-0.3-14,0-21c0.2-3.8-1-4.7-4.7-4.7c-17.7,0.2-35.3,0-53,0.2c-3.3,0-4.2-1-4.2-4.2c0.2-11.7,0-23.3,0.1-35
			c0-2.9-0.6-4.1-3.8-4.1c-16.3,0.2-32.6,0.1-49,0c-2.9,0-3.6,1-3.6,3.7c0.2,8.8,0.1,17.7,0,26.5c0,4.1,1.3,9.5-0.8,12.1
			c-2.2,2.8-7.8,0.6-11.9,0.9c-0.5,0-1,0.1-1.5,0c-2.8-0.4-3.8,0.7-3.8,3.6c0.2,7.8,0.1,15.7,0,23.5c0,2.6,0.8,3.6,3.4,3.5
			c3.5-0.2,7,0.2,10.5-0.1c3.4-0.3,4.1,1.1,4.1,4.2C1202,144.1,1202.1,162.2,1202.1,180.4z"/>
		<path class="st1" d="M167,1c6.6,2.2,13.6,1.8,20.4,2.9c22.4,3.6,44,9.2,62.5,23.2C267,40.1,276.5,57,275.8,79
			c-0.2,6.5-0.2,13,0,19.5c0.1,2.9-0.9,3.6-3.7,3.6c-21-0.1-42-0.1-63,0c-2.7,0-3.4-0.8-3.3-3.4c0.2-7.5-0.1-15,0.1-22.5
			c0.4-14.7-6.4-25.1-18.9-32.1c-10.6-5.9-22.2-7.8-34.1-8.5c-15.9-1-31.6-0.1-46.8,5.4c-19.4,7-27.7,19-27.7,39.6
			c0,41.5,0.2,83-0.1,124.5c-0.1,16,7.2,26.5,20.9,33.3c11.6,5.7,24.1,7.5,36.8,8c17,0.7,34,0,50.6-4.4c2.4-0.6,4.8-1.5,7.1-2.4
			c10.3-4.3,12.3-7.2,12.3-18.3c0-15.5-0.1-31,0.1-46.5c0-3.6-1-4.5-4.5-4.4c-17.7,0.2-35.3,0-53,0.2c-3.7,0-4.9-0.8-4.7-4.6
			c0.3-9.2,0.2-18.3,0-27.5c0-2.8,0.8-3.7,3.6-3.7c41.5,0.1,83,0.1,124.5,0c3,0,4,0.8,4,3.9c-0.1,29.3-0.1,58.7,0,88
			c0,3.2-1.5,5.4-3.2,7.6c-12.1,16-28.4,26.4-46.7,33.9c-26.8,10.9-54.9,14.2-83.6,14.1c-26.5-0.1-52.5-3.1-77.2-13.5
			c-24-10.1-43.2-25.5-53.5-50.3c-2.1-5-3.1-10.1-3.1-15.5C8.7,163.7,9,124.3,8.5,85c-0.2-17.3,6.1-31.5,17-44
			C41.8,22.3,63.4,12.8,86.9,7c10.7-2.6,21.6-4.1,32.5-5.1c0.9-0.1,2.1,0.3,2.5-1C137,1,152,1,167,1z"/>
		<path class="st1" d="M1782.6,139c0-43.5,0.1-87-0.1-130.5c0-4,0.9-5.4,5.2-5.3c15.8,0.3,31.7,0.4,47.5,0.2c3.3,0,3.7,1,3.7,3.9
			c-0.1,24-0.1,48-0.1,72c0,6.6,0,6.3,6.4,5.3c32.9-5,65.7-4.9,98,4.4c10.6,3.1,20.6,7.8,29,15.1c9.6,8.3,15.1,18.3,15,31.7
			c-0.4,44.5-0.2,89-0.1,133.5c0,4-1,5-4.9,4.9c-15.5-0.2-31-0.2-46.5,0c-3.8,0.1-5-0.9-5-4.9c0.2-43.2-0.1-86.3,0.2-129.5
			c0.1-10.7-4.7-17.4-13.7-21.7c-13.2-6.2-27.3-6.7-41.6-5.7c-7.3,0.5-14.6,1.7-21.3,4.7c-10.1,4.5-15.8,11.4-15.7,23.5
			c0.4,42.8,0.1,85.6,0.3,128.5c0,4.4-1.4,5.1-5.3,5c-15.3-0.2-30.7-0.2-46,0c-4.1,0.1-5.2-1-5.2-5.2
			C1782.6,225.7,1782.6,182.3,1782.6,139z"/>
		<path class="st2" d="M1461.5,196.6c-23,0-46,0.1-69-0.1c-4,0-5,1.2-4.9,5c0.2,8,0,16-0.2,24c-0.3,9.7,4.6,16.1,12.7,20.4
			c9.5,5.1,19.9,6.2,30.5,6.4c9.9,0.2,19.6-0.3,29.1-3.3c14.8-4.6,20.1-11.9,20.1-27.3c0-6.9,0-6.9,6.7-6.9
			c14.8,0,29.7,0.1,44.5-0.1c3.6,0,5.1,0.5,5.1,4.7c-0.1,26.9-9.2,40.9-34,51.7c-14.9,6.4-30.5,9.2-46.5,10.3
			c-27,1.8-53.9,1.5-80.2-6.5c-12.1-3.6-23.3-9-32.2-18.3c-7.9-8.1-12-17.7-11.9-29.2c0.1-28.8,0.3-57.6,0-86.5
			c-0.2-15.1,6-26.7,17.6-35.7c13.4-10.5,29.1-15.3,45.5-17.7c31.6-4.7,63.1-4.7,94.2,3.4c13.2,3.4,25.4,9,35.2,18.9
			c8.2,8.3,12.6,18.1,12.4,30c-0.2,17.2-0.2,34.3,0,51.5c0.1,4-0.9,5.3-5.1,5.3C1507.8,196.5,1484.6,196.6,1461.5,196.6z
			 M1433.5,159.1c10.8,0,21.7,0.1,32.5,0c4.4-0.1,10.2,2,13-0.9c2.7-2.8,0.8-8.6,0.9-13c0.2-13.6-4.4-20.3-17.2-25.3
			c-10.6-4.1-21.7-4.9-32.9-4.5c-10,0.3-19.9,1.5-29,6.3c-8.6,4.6-13.9,11.1-13.1,21.6c0.3,3.8,0.2,7.7,0,11.5
			c-0.2,3.4,0.8,4.5,4.4,4.5C1405.8,159,1419.7,159.1,1433.5,159.1z"/>
		<path class="st2" d="M426.4,196.6c-22.5,0-45,0-67.5,0c-8.3,0-6.7-0.6-6.8,7c-0.1,7,0.2,14-0.2,21c-0.5,10.3,4.5,17,13.2,21.5
			c8.9,4.6,18.6,5.9,28.5,6.1c11.2,0.3,22.3-0.1,33-4.1c13.3-5,17.7-11.3,17.6-25.5c0-1.3,0.1-2.7-0.1-4c-0.4-3.1,0.9-3.9,3.9-3.9
			c16.2,0.1,32.3,0.1,48.5,0c2.8,0,3.9,0.5,4.2,3.7c2.1,28.8-11.8,42.2-32.3,51.8c-15.4,7.3-32,10.1-48.9,11.2
			c-25.7,1.7-51.3,1.4-76.4-5.5c-12.1-3.3-23.6-8.2-33-16.9c-9.3-8.5-14.4-18.7-14.3-31.7c0.2-28.5,0.5-57-0.1-85.5
			c-0.3-17.5,7.4-29.9,21.2-39.4c12.6-8.6,27-12.9,41.9-15.1c31.6-4.6,63.1-4.6,94.2,3.4c11.2,2.9,21.7,7.5,30.7,14.9
			c11.1,9,17.1,20.4,16.9,35.1c-0.3,16.8-0.2,33.7,0,50.5c0.1,4.3-1.3,5.2-5.3,5.2C472.4,196.5,449.4,196.6,426.4,196.6z
			 M398.4,159.1c10.5,0,21,0.1,31.5,0c4.6-0.1,10.7,2,13.4-0.9c2.7-2.8,0.9-8.9,0.9-13.5c0.2-13.4-4.4-20-17-24.9
			c-12.1-4.6-24.7-5.1-37.4-4.3c-8.9,0.6-17.5,2.1-25.4,6.5c-8.1,4.6-13,11.2-12.3,21.1c0.3,3.6,0.3,7.3,0,11
			c-0.3,3.8,0.7,5.2,4.9,5.1C370.7,158.9,384.6,159.1,398.4,159.1z"/>
		<path class="st2" d="M873.8,196.6c-23.2,0-46.3,0.1-69.5-0.1c-3.6,0-5,0.8-4.9,4.6c0.2,7.8,0.1,15.7-0.2,23.5
			c-0.4,10,4.4,16.7,12.8,21.3c5.8,3.1,12.1,4.8,18.5,5.5c14.8,1.5,29.6,1.9,43.9-3.5c12.9-4.8,17.4-11.6,17.2-25.3
			c0-1.3,0.1-2.7,0-4c-0.4-3.1,0.9-3.9,3.9-3.9c16.2,0.1,32.3,0.1,48.5,0c3,0,3.9,0.6,4,3.8c0.6,26.8-8.9,41.7-33.6,52.4
			c-15,6.5-30.9,9.4-47,10.5c-27,1.8-53.9,1.5-80.2-6.5c-12.1-3.7-23.3-9.1-32.2-18.3c-7.8-8.1-11.9-17.8-11.9-29.2
			c0.1-28.7,0.3-57.3-0.1-86c-0.2-15.7,6.3-27.6,18.5-36.8c13.2-10,28.6-14.7,44.7-17.1c31.6-4.7,63.1-4.7,94.2,3.4
			c13,3.4,25.1,8.9,34.8,18.6c8.4,8.4,12.9,18.3,12.7,30.4c-0.2,17.3-0.2,34.7,0.1,52c0.1,3.9-1.1,4.7-4.8,4.7
			C920.1,196.5,897,196.6,873.8,196.6z M845.4,159.1c10.8,0,21.7,0.1,32.5,0c4.4-0.1,10.2,2,13-0.9c2.7-2.8,0.8-8.6,0.9-13
			c0.2-13.5-4.5-20.3-17.3-25.3c-10.1-4-20.7-4.8-31.4-4.5c-10.7,0.2-21.3,1.3-30.9,6.6c-8.4,4.6-13.4,11.2-12.7,21.4
			c0.3,3.8,0.4,7.7,0.1,11.5c-0.2,3.5,0.9,4.5,4.4,4.5C817.7,159,831.6,159.1,845.4,159.1z"/>
		<path class="st1" d="M966.9,184.1c0-28.3,0.1-56.7-0.1-85c0-3.7,0.9-5.2,4.7-4.7c18.4,2.5,35.1-5.3,52.6-8.6
			c35.8-6.8,71.6-6.8,106.7,4.4c14.9,4.7,28,12.5,36.3,26.4c2.9,4.8,4.4,9.9,4.4,15.6c-0.1,45.7-0.1,91.3,0,137c0,3.8-0.8,5.1-4.8,5
			c-15.7-0.3-31.3-0.2-47,0c-3.8,0.1-4.6-1.1-4.6-4.7c0.1-43.5-0.1-87,0.2-130.5c0.1-9.6-4.2-15.9-12.2-20
			c-13.5-7.1-28.1-7.4-42.9-6.5c-7.2,0.5-14.2,1.7-20.9,4.5c-11.7,4.9-16.2,11.5-16.2,24.1c0,42.7-0.1,85.3,0.1,128
			c0,4.2-1.1,5.2-5.2,5.1c-15.3-0.3-30.7-0.3-46,0c-4.1,0.1-5.3-0.8-5.2-5.1C967,240.7,966.9,212.4,966.9,184.1z"/>
		<path class="st1" d="M519.6,184.1c0-28.2,0.1-56.3-0.1-84.5c0-4.1,1-5.5,5.2-5.3c14.4,0.7,28-1.5,42-6c25.5-8.3,52.2-7.8,78.7-5.8
			C661.9,83.8,678,87,693.2,94c7.8,3.6,14.9,8.2,20.7,14.6c6.7,7.4,10.4,15.7,10.3,26.2c-0.3,44.8-0.2,89.6-0.1,134.5
			c0,3.7-0.6,5.1-4.8,5c-15.5-0.3-31-0.3-46.5,0c-4.4,0.1-5-1.3-5-5.3c0.1-43.2-0.1-86.3,0.2-129.5c0.1-10.2-4.6-16.8-13.2-21
			c-13.3-6.5-27.6-6.9-42-6c-7.3,0.5-14.5,1.7-21.4,4.6c-11.3,4.8-15.6,11.3-15.6,23.4c0,42.8-0.1,85.6,0.1,128.5
			c0,4.2-1.1,5.2-5.2,5.1c-15.3-0.3-30.7-0.3-46,0c-4.7,0.1-5.3-1.5-5.3-5.6C519.7,240.4,519.6,212.3,519.6,184.1z"/>
		<path class="st1" d="M1611.9,184.3c0,13.5,0.3,27-0.1,40.5c-0.3,10.1,4.5,16.7,12.9,21.2c9.7,5.1,20.3,6.2,31,6.4
			c10.9,0.1,21.7-0.5,31.9-4.6c12.1-4.9,16.3-11.4,16.4-24.4c0-5.4-2.4-12.7,1-15.8c3-2.7,10.1-0.8,15.4-0.9
			c11.8,0,23.7,0.1,35.5-0.1c3.1,0,4.5,0.7,4.3,4.1c-0.3,5.5-0.2,11,0,16.5c0.5,13.2-5.1,23.5-14.6,32c-12.3,11-27.4,16.3-43.3,19.1
			c-33.2,5.9-66.3,5.9-99.1-2.3c-11.9-3-23-7.9-32.3-16.1c-9.9-8.6-15.4-19.2-15.2-32.8c0.3-28.5,0.5-57-0.1-85.5
			c-0.3-17.1,7.2-29.3,20.6-38.7c12.7-8.8,27.2-13.2,42.3-15.4c31.6-4.6,63.1-4.7,94.2,3.4c12.2,3.2,23.6,8.2,33,16.8
			c9.4,8.6,14.9,19,14.5,32.1c-0.2,6.3-0.2,12.7,0,19c0.1,2.9-0.9,3.7-3.7,3.7c-16.5-0.2-33-0.3-49.5-0.3c-2.4,0-3.2-0.7-3.1-3.1
			c0.1-5.7-0.3-11.4,0.1-17c0.7-10.7-4.8-17.3-13.8-21.5c-12-5.6-24.8-6-37.7-5.2c-7.8,0.4-15.5,1.6-22.9,4.5
			c-12.9,5.1-17.6,12-17.7,25.7c0,6.5,0,13,0,19.5C1612,171.6,1612,177.9,1611.9,184.3C1612,184.3,1611.9,184.3,1611.9,184.3z"/>
		<path class="st2" d="M1202.1,180.4c0-18.2-0.1-36.3,0.1-54.5c0-3.1-0.6-4.5-4.1-4.2c-3.5,0.3-7-0.1-10.5,0.1
			c-2.7,0.1-3.5-0.9-3.4-3.5c0.1-7.8,0.2-15.7,0-23.5c-0.1-2.9,1-4,3.8-3.6c0.5,0.1,1,0,1.5,0c4.1-0.3,9.7,1.9,11.9-0.9
			c2.1-2.6,0.7-7.9,0.8-12.1c0.1-8.8,0.1-17.7,0-26.5c0-2.8,0.7-3.7,3.6-3.7c16.3,0.1,32.6,0.2,49,0c3.3,0,3.8,1.2,3.8,4.1
			c-0.1,11.7,0.1,23.3-0.1,35c0,3.3,0.9,4.3,4.2,4.2c17.7-0.2,35.3,0,53-0.2c3.7,0,4.9,0.9,4.7,4.7c-0.3,7-0.3,14,0,21
			c0.2,3.8-0.7,5.1-4.8,5.1c-17.5-0.2-35,0-52.5-0.2c-3.3,0-4.6,0.7-4.6,4.4c0.1,34.3,0.1,68.6,0.1,102.9c0,9.1,5.5,14.7,12.9,18.7
			c10.3,5.6,21.6,6.2,33,5.8c2.3-0.1,4.7-0.1,7-0.6c4.9-1.2,6.8,0.3,6.5,5.6c-0.4,6-0.1,12-0.1,18c0,1.6,0.2,3.2-2.4,3.5
			c-26.7,2.9-53.2,3.4-79.1-5.2c-5.2-1.7-10.2-4.2-14.7-7.2c-12.6-8.4-19.1-20.1-19.2-35.2C1202,215,1202.1,197.7,1202.1,180.4z"/>
		<path class="st0" d="M1433.5,159.1c-13.8,0-27.7-0.1-41.5,0.1c-3.6,0.1-4.6-1.1-4.4-4.5c0.2-3.8,0.3-7.7,0-11.5
			c-0.9-10.4,4.5-17,13.1-21.6c9.1-4.8,19-6,29-6.3c11.2-0.4,22.3,0.3,32.9,4.5c12.8,5,17.4,11.7,17.2,25.3
			c-0.1,4.5,1.8,10.2-0.9,13c-2.7,2.8-8.5,0.8-13,0.9C1455.2,159.2,1444.3,159.1,1433.5,159.1z"/>
		<path class="st0" d="M398.4,159.1c-13.8,0-27.7-0.2-41.5,0.1c-4.1,0.1-5.1-1.3-4.9-5.1c0.3-3.6,0.3-7.3,0-11
			c-0.7-9.9,4.2-16.5,12.3-21.1c7.9-4.4,16.5-5.9,25.4-6.5c12.7-0.9,25.3-0.3,37.4,4.3c12.7,4.8,17.2,11.5,17,24.9
			c-0.1,4.6,1.8,10.6-0.9,13.5c-2.8,2.9-8.8,0.8-13.4,0.9C419.4,159.2,408.9,159.1,398.4,159.1z"/>
		<path class="st0" d="M845.4,159.1c-13.8,0-27.7-0.1-41.5,0.1c-3.5,0.1-4.6-1-4.4-4.5c0.3-3.8,0.1-7.7-0.1-11.5
			c-0.7-10.1,4.3-16.7,12.7-21.4c9.6-5.3,20.3-6.4,30.9-6.6c10.7-0.2,21.3,0.6,31.4,4.5c12.8,5,17.5,11.8,17.3,25.3
			c-0.1,4.5,1.8,10.2-0.9,13c-2.7,2.8-8.5,0.8-13,0.9C867.1,159.2,856.2,159.1,845.4,159.1z"/>
	</g>
</g>
</svg>
